<svg xmlns="http://www.w3.org/2000/svg"  viewBox="0 0 72 72" width="64px" height="64px"><path d="M 36 11 C 33.267 11 31.28 12.524984 30.125 14.458984 C 23.056 16.698984 19.931219 22.065797 19.324219 27.841797 C 19.108219 29.898797 18.80275 37.045375 15.34375 38.359375 C 14.64675 38.623375 14.085875 39.16025 13.671875 39.78125 C 13.397875 40.19125 11 43.963 11 50 C 11 52.209 12.791 54 15 54 L 27.525391 54 C 27.786606 58.453711 31.481892 62 36 62 C 40.518108 62 44.213394 58.453711 44.474609 54 L 57 54 C 59.209 54 61 52.209 61 50 C 61 43.963 58.602125 40.19125 58.328125 39.78125 C 57.914125 39.16025 57.35525 38.662375 56.65625 38.359375 C 53.34125 36.923375 52.826781 30.324797 52.675781 27.841797 C 52.210781 20.218797 46.225812 15.668703 41.882812 14.470703 C 40.728813 12.530703 38.738 11 36 11 z M 36.015625 20.78125 C 36.196625 20.78125 36.426719 21.230187 36.886719 21.492188 C 37.454719 21.815187 38.353938 21.998047 38.960938 21.998047 C 39.197938 21.998047 44.058937 22.569844 44.710938 28.589844 C 45.072937 34.033844 46.255344 41.425312 52.027344 44.945312 C 52.148344 45.225312 52.284016 45.578 52.416016 46 L 19.582031 46 C 19.713031 45.577 19.85075 45.224266 19.96875 44.947266 C 25.74575 41.428266 26.927063 34.035844 27.289062 28.589844 C 27.931062 22.758844 32.71 22 33 22 C 34.009 22 34.839656 21.657188 35.097656 21.492188 C 35.589656 21.178187 35.834625 20.78125 36.015625 20.78125 z M 34.591797 54 L 37.408203 54 C 37.201285 54.581025 36.651091 55 36 55 C 35.348909 55 34.798715 54.581025 34.591797 54 z"/></svg>